<svg width="2440" height="2182" viewBox="0 0 2440 2182" fill="none" xmlns="http://www.w3.org/2000/svg">
<g clip-path="url(#clip0_156_2088)">
<g filter="url(#filter0_bi_156_2088)">
<path d="M781.282 710.339C753.625 705.253 725.982 703.673 699.337 705.655L286.731 736.346C235.53 759.651 253.218 845.95 261.221 859.811L685.317 1594.37C771.606 1743.82 941.023 1857.61 1128.61 1892.11L1539.27 1967.62C1594.39 1977.76 1646.53 1963.79 1676.74 1930.78L1901.85 1684.92C2004.68 1572.61 2045.46 1345.37 1959.17 1195.91L1504.53 526.667C1496.53 512.807 1477.51 504.928 1462.05 509.071L1059.68 616.885C1018.73 627.856 983.954 648.113 958.699 675.697L925.457 712.004C913.371 725.204 892.515 730.793 870.467 726.738L781.282 710.339Z" fill="#0078B9" fill-opacity="0.44"/>
</g>
<g filter="url(#filter1_bdi_156_2088)">
<path d="M826.177 622.861C780.104 614.389 734.386 615.702 693.444 626.672L291.074 734.487C275.614 738.629 269.569 753.224 277.572 767.084L701.668 1501.64C787.957 1651.1 957.374 1764.89 1144.96 1799.38L1555.62 1874.89C1610.74 1885.03 1662.88 1871.06 1693.1 1838.06L1918.2 1592.19C2021.03 1479.88 2031.26 1317.95 1944.98 1168.5L1520.88 433.941C1512.88 420.08 1493.86 412.202 1478.4 416.344L1076.03 524.159C1035.09 535.13 1000.31 555.386 975.05 582.971L941.808 619.277C929.722 632.478 908.866 638.066 886.818 634.012L826.177 622.861Z" fill="url(#paint0_linear_156_2088)" fill-opacity="0.22" shape-rendering="crispEdges"/>
</g>
<path opacity="0.04" d="M404.997 798.406L755.142 704.585C794.862 693.942 839.216 692.668 883.914 700.887L925.854 708.6C950.699 713.168 974.2 706.871 987.819 691.996L1010.81 666.886C1035.31 640.125 1069.05 620.472 1108.77 609.829L1458.92 516.008C1468.72 513.382 1480.78 518.377 1485.85 527.164L1862.3 1179.19C1937.57 1309.56 1928.64 1450.8 1838.95 1548.77L1639.13 1767.01C1613.84 1794.63 1570.21 1806.32 1524.07 1797.84L1159.55 1730.81C995.929 1700.72 848.151 1601.46 772.884 1471.1L396.436 819.072C391.363 810.285 395.196 801.032 404.997 798.406Z" stroke="white" stroke-width="14.7011"/>
<g filter="url(#filter2_i_156_2088)">
<path d="M1312.89 856.957L852.755 980.25C768.153 1002.92 761.772 1099.11 842.522 1153.85L1381.29 1519.06C1416.45 1542.91 1462.89 1530.47 1464.79 1496.69L1494.04 979.277C1498.41 901.848 1397.49 834.288 1312.95 856.942L1312.89 856.957ZM1304.65 1386.78L1180.85 1296.04L893.464 1096.74C874.777 1084.06 875.605 1061.17 896.22 1055.65L1084.3 1005.25L1304.62 1386.85L1304.65 1386.78ZM1399.43 961.103L1388.47 1240.47L1388.56 1364.3L1168.24 982.702L1356.32 932.305C1376.94 926.781 1400.43 943.15 1399.43 961.103Z" fill="white"/>
</g>
<g filter="url(#filter3_bi_156_2088)">
<path d="M766.977 545.475C739.32 540.39 711.678 538.81 685.032 540.792L272.426 571.483C221.225 594.787 238.914 681.087 246.916 694.947L671.013 1429.5C757.301 1578.96 926.719 1692.75 1114.3 1727.24L1524.96 1802.76C1580.08 1812.89 1632.22 1798.92 1662.44 1765.92L1887.55 1520.05C1990.38 1407.74 2031.15 1180.5 1944.87 1031.05L1490.22 361.804C1482.22 347.943 1463.2 340.065 1447.74 344.207L1045.37 452.022C1004.43 462.992 969.65 483.249 944.394 510.834L911.153 547.14C899.067 560.341 878.21 565.929 856.162 561.875L766.977 545.475Z" fill="#0078B9" fill-opacity="0.44"/>
</g>
<g filter="url(#filter4_bdi_156_2088)">
<path d="M811.87 458C765.797 449.528 720.079 450.841 679.137 461.811L276.767 569.626C261.308 573.768 255.263 588.363 263.265 602.223L687.362 1336.78C773.65 1486.24 943.068 1600.03 1130.65 1634.52L1541.31 1710.03C1596.43 1720.17 1648.57 1706.2 1678.79 1673.2L1903.9 1427.33C2006.73 1315.02 2016.96 1153.09 1930.67 1003.64L1506.57 269.08C1498.57 255.219 1479.55 247.341 1464.09 251.484L1061.72 359.298C1020.78 370.269 985.999 390.526 960.743 418.11L927.502 454.416C915.416 467.617 894.559 473.205 872.511 469.151L811.87 458Z" fill="url(#paint1_linear_156_2088)" fill-opacity="0.22" shape-rendering="crispEdges"/>
</g>
<path opacity="0.04" d="M390.692 633.542L740.837 539.721C780.557 529.078 824.911 527.805 869.609 536.024L911.549 543.736C936.394 548.305 959.895 542.008 973.514 527.133L996.505 502.022C1021.01 475.261 1054.75 455.609 1094.47 444.966L1444.61 351.145C1454.42 348.519 1466.47 353.513 1471.55 362.301L1847.99 1014.33C1923.26 1144.69 1914.34 1285.94 1824.64 1383.9L1624.83 1602.15C1599.54 1629.77 1555.9 1641.46 1509.77 1632.97L1145.25 1565.95C981.624 1535.86 833.846 1436.6 758.579 1306.23L382.132 654.209C377.058 645.422 380.891 636.169 390.692 633.542Z" stroke="white" stroke-width="14.7011"/>
<g filter="url(#filter5_i_156_2088)">
<path d="M1298.58 692.098L838.45 815.39C753.848 838.059 747.467 934.248 828.218 988.99L1366.98 1354.2C1402.15 1378.05 1448.59 1365.61 1450.48 1331.83L1479.73 814.417C1484.11 736.988 1383.19 669.428 1298.64 692.082L1298.58 692.098ZM1290.34 1221.92L1166.54 1131.18L879.159 931.876C860.472 919.198 861.3 896.313 881.915 890.789L1070 840.392L1290.32 1221.99L1290.34 1221.92ZM1385.12 796.243L1374.17 1075.61L1374.25 1199.44L1153.93 817.842L1342.02 767.445C1362.63 761.921 1386.12 778.29 1385.12 796.243Z" fill="white"/>
</g>
<g filter="url(#filter6_bi_156_2088)">
<path d="M931.153 452.719C903.496 447.634 875.853 446.054 849.208 448.036L436.602 478.727C385.401 502.031 403.09 588.331 411.092 602.191L835.188 1336.75C921.477 1486.2 1090.89 1599.99 1278.48 1634.49L1689.14 1710C1744.26 1720.14 1796.4 1706.17 1826.62 1673.16L2051.72 1427.3C2154.55 1314.99 2195.33 1087.75 2109.04 938.292L1654.4 269.048C1646.4 255.187 1627.38 247.309 1611.92 251.452L1209.55 359.266C1168.61 370.237 1133.83 390.494 1108.57 418.078L1075.33 454.384C1063.24 467.585 1042.39 473.173 1020.34 469.119L931.153 452.719Z" fill="#0078B9" fill-opacity="0.44"/>
</g>
<g filter="url(#filter7_bdi_156_2088)">
<path d="M976.044 365.242C929.971 356.77 884.253 358.083 843.311 369.053L440.941 476.868C425.482 481.011 419.436 495.605 427.439 509.466L851.535 1244.02C937.824 1393.48 1107.24 1507.27 1294.83 1541.76L1705.49 1617.28C1760.61 1627.41 1812.75 1613.44 1842.96 1580.44L2068.07 1334.57C2170.9 1222.26 2181.13 1060.33 2094.84 910.879L1670.75 176.322C1662.74 162.462 1643.72 154.583 1628.26 158.726L1225.9 266.54C1184.95 277.511 1150.17 297.768 1124.92 325.352L1091.68 361.659C1079.59 374.859 1058.73 380.448 1036.68 376.393L976.044 365.242Z" fill="url(#paint2_linear_156_2088)" fill-opacity="0.22" shape-rendering="crispEdges"/>
</g>
<g opacity="0.04" filter="url(#filter8_d_156_2088)">
<path d="M554.868 540.788L905.013 446.967C944.733 436.324 989.087 435.05 1033.78 443.269L1075.73 450.981C1100.57 455.55 1124.07 449.253 1137.69 434.378L1160.68 409.268C1185.18 382.506 1218.92 362.854 1258.65 352.211L1608.79 258.39C1618.59 255.764 1630.65 260.759 1635.72 269.546L2012.17 921.572C2087.44 1051.94 2078.51 1193.18 1988.82 1291.15L1789 1509.39C1763.71 1537.01 1720.08 1548.7 1673.94 1540.22L1309.43 1473.19C1145.8 1443.1 998.022 1343.85 922.755 1213.48L546.308 561.454C541.234 552.667 545.067 543.414 554.868 540.788Z" stroke="white" stroke-width="14.7011" shape-rendering="crispEdges"/>
</g>
<g filter="url(#filter9_i_156_2088)">
<path d="M1462.76 599.339L1002.62 722.632C918.023 745.301 911.642 841.49 992.392 896.232L1531.16 1261.45C1566.32 1285.3 1612.76 1272.85 1614.66 1239.07L1643.91 721.659C1648.28 644.23 1547.36 576.67 1462.82 599.324L1462.76 599.339ZM1454.52 1129.17L1330.72 1038.42L1043.33 839.117C1024.65 826.439 1025.48 803.555 1046.09 798.031L1234.17 747.634L1454.49 1129.23L1454.52 1129.17ZM1549.3 703.485L1538.34 982.849L1538.43 1106.68L1318.11 725.084L1506.19 674.687C1526.81 669.163 1550.3 685.532 1549.3 703.485Z" fill="white"/>
</g>
</g>
<defs>
<filter id="filter0_bi_156_2088" x="191.989" y="448.28" width="1873.77" height="1582.27" filterUnits="userSpaceOnUse" color-interpolation-filters="sRGB">
<feFlood flood-opacity="0" result="BackgroundImageFix"/>
<feGaussianBlur in="BackgroundImageFix" stdDeviation="29.8432"/>
<feComposite in2="SourceAlpha" operator="in" result="effect1_backgroundBlur_156_2088"/>
<feBlend mode="normal" in="SourceGraphic" in2="effect1_backgroundBlur_156_2088" result="shape"/>
<feColorMatrix in="SourceAlpha" type="matrix" values="0 0 0 0 0 0 0 0 0 0 0 0 0 0 0 0 0 0 127 0" result="hardAlpha"/>
<feOffset dy="-14.4897"/>
<feGaussianBlur stdDeviation="8.69384"/>
<feComposite in2="hardAlpha" operator="arithmetic" k2="-1" k3="1"/>
<feColorMatrix type="matrix" values="0 0 0 0 0 0 0 0 0 0 0 0 0 0 0 0 0 0 0.48 0"/>
<feBlend mode="normal" in2="shape" result="effect2_innerShadow_156_2088"/>
</filter>
<filter id="filter1_bdi_156_2088" x="82.335" y="223.539" width="2112.55" height="1846.3" filterUnits="userSpaceOnUse" color-interpolation-filters="sRGB">
<feFlood flood-opacity="0" result="BackgroundImageFix"/>
<feGaussianBlur in="BackgroundImageFix" stdDeviation="95.851"/>
<feComposite in2="SourceAlpha" operator="in" result="effect1_backgroundBlur_156_2088"/>
<feColorMatrix in="SourceAlpha" type="matrix" values="0 0 0 0 0 0 0 0 0 0 0 0 0 0 0 0 0 0 127 0" result="hardAlpha"/>
<feOffset dy="14.4897"/>
<feGaussianBlur stdDeviation="8.69384"/>
<feComposite in2="hardAlpha" operator="out"/>
<feColorMatrix type="matrix" values="0 0 0 0 1 0 0 0 0 1 0 0 0 0 1 0 0 0 0.2 0"/>
<feBlend mode="normal" in2="effect1_backgroundBlur_156_2088" result="effect2_dropShadow_156_2088"/>
<feBlend mode="normal" in="SourceGraphic" in2="effect2_dropShadow_156_2088" result="shape"/>
<feColorMatrix in="SourceAlpha" type="matrix" values="0 0 0 0 0 0 0 0 0 0 0 0 0 0 0 0 0 0 127 0" result="hardAlpha"/>
<feOffset/>
<feGaussianBlur stdDeviation="84.0902"/>
<feComposite in2="hardAlpha" operator="arithmetic" k2="-1" k3="1"/>
<feColorMatrix type="matrix" values="0 0 0 0 1 0 0 0 0 1 0 0 0 0 1 0 0 0 0.35 0"/>
<feBlend mode="normal" in2="shape" result="effect3_innerShadow_156_2088"/>
</filter>
<filter id="filter2_i_156_2088" x="785.475" y="852.501" width="708.699" height="690.671" filterUnits="userSpaceOnUse" color-interpolation-filters="sRGB">
<feFlood flood-opacity="0" result="BackgroundImageFix"/>
<feBlend mode="normal" in="SourceGraphic" in2="BackgroundImageFix" result="shape"/>
<feColorMatrix in="SourceAlpha" type="matrix" values="0 0 0 0 0 0 0 0 0 0 0 0 0 0 0 0 0 0 127 0" result="hardAlpha"/>
<feOffset dy="11.7609"/>
<feGaussianBlur stdDeviation="9.40869"/>
<feComposite in2="hardAlpha" operator="arithmetic" k2="-1" k3="1"/>
<feColorMatrix type="matrix" values="0 0 0 0 0 0 0 0 0 0.227711 0 0 0 0 0.35 0 0 0 1 0"/>
<feBlend mode="normal" in2="shape" result="effect1_innerShadow_156_2088"/>
</filter>
<filter id="filter3_bi_156_2088" x="177.683" y="283.417" width="1873.77" height="1582.27" filterUnits="userSpaceOnUse" color-interpolation-filters="sRGB">
<feFlood flood-opacity="0" result="BackgroundImageFix"/>
<feGaussianBlur in="BackgroundImageFix" stdDeviation="29.8432"/>
<feComposite in2="SourceAlpha" operator="in" result="effect1_backgroundBlur_156_2088"/>
<feBlend mode="normal" in="SourceGraphic" in2="effect1_backgroundBlur_156_2088" result="shape"/>
<feColorMatrix in="SourceAlpha" type="matrix" values="0 0 0 0 0 0 0 0 0 0 0 0 0 0 0 0 0 0 127 0" result="hardAlpha"/>
<feOffset dy="-14.4897"/>
<feGaussianBlur stdDeviation="8.69384"/>
<feComposite in2="hardAlpha" operator="arithmetic" k2="-1" k3="1"/>
<feColorMatrix type="matrix" values="0 0 0 0 0 0 0 0 0 0 0 0 0 0 0 0 0 0 0.48 0"/>
<feBlend mode="normal" in2="shape" result="effect2_innerShadow_156_2088"/>
</filter>
<filter id="filter4_bdi_156_2088" x="68.0284" y="58.6778" width="2112.55" height="1846.3" filterUnits="userSpaceOnUse" color-interpolation-filters="sRGB">
<feFlood flood-opacity="0" result="BackgroundImageFix"/>
<feGaussianBlur in="BackgroundImageFix" stdDeviation="95.851"/>
<feComposite in2="SourceAlpha" operator="in" result="effect1_backgroundBlur_156_2088"/>
<feColorMatrix in="SourceAlpha" type="matrix" values="0 0 0 0 0 0 0 0 0 0 0 0 0 0 0 0 0 0 127 0" result="hardAlpha"/>
<feOffset dy="14.4897"/>
<feGaussianBlur stdDeviation="8.69384"/>
<feComposite in2="hardAlpha" operator="out"/>
<feColorMatrix type="matrix" values="0 0 0 0 1 0 0 0 0 1 0 0 0 0 1 0 0 0 0.2 0"/>
<feBlend mode="normal" in2="effect1_backgroundBlur_156_2088" result="effect2_dropShadow_156_2088"/>
<feBlend mode="normal" in="SourceGraphic" in2="effect2_dropShadow_156_2088" result="shape"/>
<feColorMatrix in="SourceAlpha" type="matrix" values="0 0 0 0 0 0 0 0 0 0 0 0 0 0 0 0 0 0 127 0" result="hardAlpha"/>
<feOffset/>
<feGaussianBlur stdDeviation="84.0902"/>
<feComposite in2="hardAlpha" operator="arithmetic" k2="-1" k3="1"/>
<feColorMatrix type="matrix" values="0 0 0 0 1 0 0 0 0 1 0 0 0 0 1 0 0 0 0.35 0"/>
<feBlend mode="normal" in2="shape" result="effect3_innerShadow_156_2088"/>
</filter>
<filter id="filter5_i_156_2088" x="771.17" y="687.642" width="708.699" height="690.671" filterUnits="userSpaceOnUse" color-interpolation-filters="sRGB">
<feFlood flood-opacity="0" result="BackgroundImageFix"/>
<feBlend mode="normal" in="SourceGraphic" in2="BackgroundImageFix" result="shape"/>
<feColorMatrix in="SourceAlpha" type="matrix" values="0 0 0 0 0 0 0 0 0 0 0 0 0 0 0 0 0 0 127 0" result="hardAlpha"/>
<feOffset dy="11.7609"/>
<feGaussianBlur stdDeviation="9.40869"/>
<feComposite in2="hardAlpha" operator="arithmetic" k2="-1" k3="1"/>
<feColorMatrix type="matrix" values="0 0 0 0 0 0 0 0 0 0.227711 0 0 0 0 0.35 0 0 0 1 0"/>
<feBlend mode="normal" in2="shape" result="effect1_innerShadow_156_2088"/>
</filter>
<filter id="filter6_bi_156_2088" x="341.86" y="190.662" width="1873.77" height="1582.27" filterUnits="userSpaceOnUse" color-interpolation-filters="sRGB">
<feFlood flood-opacity="0" result="BackgroundImageFix"/>
<feGaussianBlur in="BackgroundImageFix" stdDeviation="29.8432"/>
<feComposite in2="SourceAlpha" operator="in" result="effect1_backgroundBlur_156_2088"/>
<feBlend mode="normal" in="SourceGraphic" in2="effect1_backgroundBlur_156_2088" result="shape"/>
<feColorMatrix in="SourceAlpha" type="matrix" values="0 0 0 0 0 0 0 0 0 0 0 0 0 0 0 0 0 0 127 0" result="hardAlpha"/>
<feOffset dy="-14.4897"/>
<feGaussianBlur stdDeviation="8.69384"/>
<feComposite in2="hardAlpha" operator="arithmetic" k2="-1" k3="1"/>
<feColorMatrix type="matrix" values="0 0 0 0 0 0 0 0 0 0 0 0 0 0 0 0 0 0 0.48 0"/>
<feBlend mode="normal" in2="shape" result="effect2_innerShadow_156_2088"/>
</filter>
<filter id="filter7_bdi_156_2088" x="232.202" y="-34.08" width="2112.55" height="1846.3" filterUnits="userSpaceOnUse" color-interpolation-filters="sRGB">
<feFlood flood-opacity="0" result="BackgroundImageFix"/>
<feGaussianBlur in="BackgroundImageFix" stdDeviation="95.851"/>
<feComposite in2="SourceAlpha" operator="in" result="effect1_backgroundBlur_156_2088"/>
<feColorMatrix in="SourceAlpha" type="matrix" values="0 0 0 0 0 0 0 0 0 0 0 0 0 0 0 0 0 0 127 0" result="hardAlpha"/>
<feOffset dy="14.4897"/>
<feGaussianBlur stdDeviation="8.69384"/>
<feComposite in2="hardAlpha" operator="out"/>
<feColorMatrix type="matrix" values="0 0 0 0 1 0 0 0 0 1 0 0 0 0 1 0 0 0 0.2 0"/>
<feBlend mode="normal" in2="effect1_backgroundBlur_156_2088" result="effect2_dropShadow_156_2088"/>
<feBlend mode="normal" in="SourceGraphic" in2="effect2_dropShadow_156_2088" result="shape"/>
<feColorMatrix in="SourceAlpha" type="matrix" values="0 0 0 0 0 0 0 0 0 0 0 0 0 0 0 0 0 0 127 0" result="hardAlpha"/>
<feOffset/>
<feGaussianBlur stdDeviation="84.0902"/>
<feComposite in2="hardAlpha" operator="arithmetic" k2="-1" k3="1"/>
<feColorMatrix type="matrix" values="0 0 0 0 1 0 0 0 0 1 0 0 0 0 1 0 0 0 0.35 0"/>
<feBlend mode="normal" in2="shape" result="effect3_innerShadow_156_2088"/>
</filter>
<filter id="filter8_d_156_2088" x="524.309" y="242.224" width="1558.39" height="1322.06" filterUnits="userSpaceOnUse" color-interpolation-filters="sRGB">
<feFlood flood-opacity="0" result="BackgroundImageFix"/>
<feColorMatrix in="SourceAlpha" type="matrix" values="0 0 0 0 0 0 0 0 0 0 0 0 0 0 0 0 0 0 127 0" result="hardAlpha"/>
<feOffset dy="2.94022"/>
<feGaussianBlur stdDeviation="5.88043"/>
<feComposite in2="hardAlpha" operator="out"/>
<feColorMatrix type="matrix" values="0 0 0 0 0 0 0 0 0 0 0 0 0 0 0 0 0 0 1 0"/>
<feBlend mode="normal" in2="BackgroundImageFix" result="effect1_dropShadow_156_2088"/>
<feBlend mode="normal" in="SourceGraphic" in2="effect1_dropShadow_156_2088" result="shape"/>
</filter>
<filter id="filter9_i_156_2088" x="935.346" y="594.883" width="708.698" height="690.671" filterUnits="userSpaceOnUse" color-interpolation-filters="sRGB">
<feFlood flood-opacity="0" result="BackgroundImageFix"/>
<feBlend mode="normal" in="SourceGraphic" in2="BackgroundImageFix" result="shape"/>
<feColorMatrix in="SourceAlpha" type="matrix" values="0 0 0 0 0 0 0 0 0 0 0 0 0 0 0 0 0 0 127 0" result="hardAlpha"/>
<feOffset dy="11.7609"/>
<feGaussianBlur stdDeviation="9.40869"/>
<feComposite in2="hardAlpha" operator="arithmetic" k2="-1" k3="1"/>
<feColorMatrix type="matrix" values="0 0 0 0 0 0 0 0 0 0.227711 0 0 0 0 0.35 0 0 0 1 0"/>
<feBlend mode="normal" in2="shape" result="effect1_innerShadow_156_2088"/>
</filter>
<linearGradient id="paint0_linear_156_2088" x1="1511.57" y1="1661.12" x2="1139.15" y2="271.224" gradientUnits="userSpaceOnUse">
<stop stop-color="#0098EA"/>
<stop offset="1" stop-color="#005684"/>
</linearGradient>
<linearGradient id="paint1_linear_156_2088" x1="1497.26" y1="1496.26" x2="1124.84" y2="106.363" gradientUnits="userSpaceOnUse">
<stop stop-color="#0098EA"/>
<stop offset="1" stop-color="#005684"/>
</linearGradient>
<linearGradient id="paint2_linear_156_2088" x1="1661.44" y1="1403.5" x2="1289.01" y2="13.6056" gradientUnits="userSpaceOnUse">
<stop stop-color="#0098EA"/>
<stop offset="1" stop-color="#005684"/>
</linearGradient>
<clipPath id="clip0_156_2088">
<rect width="2439" height="2182" fill="white" transform="translate(0.390625)"/>
</clipPath>
</defs>
</svg>
